# Blender 3.4.1
# www.blender.org
mtllib Cube.mtl
o Cube
v 1.000000 1.000000 -1.000000
v 1.000000 -1.000000 -1.000000
v 1.000000 1.000000 1.000000
v 1.000000 -1.000000 1.000000
v -1.000000 1.000000 -1.000000
v -1.000000 -1.000000 -1.000000
v -1.000000 1.000000 1.000000
v -1.000000 -1.000000 1.000000
vn -1.0000 -0.0000 -0.0000
vn -0.0000 -0.0000 -1.0000
vn -0.0000 1.0000 -0.0000
vn -0.0000 -0.0000 1.0000
vn 1.0000 -0.0000 -0.0000
vn -0.0000 -1.0000 -0.0000
vt 0.749957 0.250043
vt 0.500000 0.000087
vt 0.500000 0.999913
vt 0.749957 0.500000
vt 0.500000 0.749957
vt 0.250043 0.000087
vt 0.000087 0.250043
vt 0.250043 0.999913
vt 0.000087 0.500000
vt 0.250043 0.749957
vt 0.500000 0.250043
vt 0.500000 0.500000
vt 0.250043 0.250043
vt 0.250043 0.500000
s 0
usemtl Material
f 5/11/1 6/12/1 7/13/1
f 6/12/2 5/11/2 2/4/2
f 7/13/3 3/6/3 5/11/3
f 1/1/2 2/4/2 5/11/2
f 8/14/1 7/13/1 6/12/1
f 1/2/3 5/11/3 3/6/3
f 8/14/4 3/7/4 7/13/4
f 4/9/4 3/7/4 8/14/4
f 3/8/5 4/10/5 1/3/5
f 2/5/5 1/3/5 4/10/5
f 8/14/6 2/5/6 4/10/6
f 6/12/6 2/5/6 8/14/6
